<svg width="44" height="44" viewBox="0 0 44 44" fill="none" xmlns="http://www.w3.org/2000/svg">
  <path d="M25.8001 33.7873C22.3001 32.4873 18.7001 32.2873 15.4001 33.1873C13.1001 33.7873 10.9001 34.9873 8.90012 36.4873L7.50009 37.6873L7.1001 38.0873L8.00009 38.8873C8.10009 38.8873 8.1001 38.9873 8.2001 39.0873C8.4001 39.2873 8.60012 39.3873 8.90012 39.5873L9.50009 39.9873L10.1001 39.4873C10.2001 39.3873 10.4001 39.1873 10.6001 39.0873C12.4001 37.5873 14.4001 36.5873 16.5001 36.0873C19.2001 35.3873 22.1001 35.4873 25.0001 36.5873C27.4001 37.4873 32.3001 38.5873 38.2001 36.0873L38.4001 35.9873L38.7001 35.6873C38.7001 35.5873 38.8001 35.5873 38.9001 35.4873C39.4001 34.8873 39.9001 34.2873 40.3001 33.5873L42.3001 30.4873L39.1001 32.2873C34.4001 34.8873 30.1001 35.3873 25.8001 33.7873Z" fill="#099250"/>
  <path d="M12.1 22.9876C14.8 22.2876 17.7 22.3876 20.6 23.4876C23.8 24.6876 32 26.3876 41.2 18.0876L42.7 16.5876L42.8 16.4876L43.2 16.0876L43 15.5876C42.9 15.1876 42.7 14.6876 42.5 14.1876L42 12.7876L41 13.7876C40.9 13.9876 40.7 14.0876 40.5 14.2876C36.1 18.7876 29.3 23.3876 21.5 20.5876C18 19.2876 14.4 19.0876 11.1 19.9876C7.90001 20.8876 5.1 22.5876 2.5 24.9876V24.8876L1 26.4876C1 26.5876 0.900018 26.5876 0.800018 26.6876L0.5 26.9876L0.600006 27.3876C0.700006 27.8876 0.9 28.3876 1 28.8876L1.60001 30.4876L2.60001 29.1876C2.70001 28.9876 2.9 28.8876 3 28.6876C5.1 26.7876 8.00001 24.0876 12.1 22.9876Z" fill="#099250"/>
  <path d="M2.40002 21.1874C4.70002 18.7874 7.30001 17.2874 10.1 16.4874C12.8 15.7874 15.7 15.8874 18.6 16.9874C27.6 20.2874 35.4 14.8874 38.8 11.9874L40.1 10.6874L40.6 10.2874L40.2 9.68744C39.9 9.38744 39.7 8.98743 39.4 8.58743L38.8 7.78741L38.1 8.48743C38 8.58743 37.8 8.78742 37.7 8.88742C33.5 12.8874 27 16.9874 19.6 14.1874C16.1 12.8874 12.5 12.6874 9.20001 13.5874C7.10001 14.1874 5.10001 15.1874 3.10001 16.4874L1 18.1874C0.8 18.3874 0.7 18.4874 0.5 18.6874L0.300018 18.8874V19.1874C0.200018 19.8874 0.200006 20.5874 0.100006 21.1874L0 23.6874L1.70001 21.8874C1.90001 21.6874 2.10002 21.3874 2.40002 21.1874Z" fill="#099250"/>
  <path d="M28.6999 40.5874L28.4999 41.1874L28.6999 40.5874C28.3999 40.4874 28.1999 40.3874 27.8999 40.2874C24.3999 38.9874 20.7999 38.7874 17.4999 39.6874C16.7999 39.8874 16.0999 40.0874 15.3999 40.3874L12.9999 41.4874L12.3999 41.7874L14.3999 42.4874C14.9999 42.6874 15.5999 42.8874 16.1999 43.0874L16.4999 43.1874L16.7999 43.0874C17.0999 42.9874 17.3999 42.7874 17.6999 42.7874C17.8999 42.7874 18.0999 42.6874 18.2999 42.5874C20.6999 41.9874 23.2999 41.9874 26.0999 42.8874C26.3999 42.9874 26.5999 43.0874 26.8999 43.1874L27.3999 43.3874L27.6999 43.2874C28.3999 43.0874 29.1999 42.8874 29.7999 42.5874L32.5999 41.5874L29.6999 40.8874C29.3999 40.7874 28.9999 40.6874 28.6999 40.5874Z" fill="#099250"/>
  <path d="M44 19.8875L42.5 21.3875C42.3 21.5875 42.1001 21.7875 41.9001 21.9875C37.8001 25.8875 31.2 30.0874 23.8 27.2874C20.3 25.9874 16.7001 25.7875 13.4001 26.6875C10.3001 27.5875 7.50003 29.1875 5.00003 31.5875L3.70004 32.9875L3.30005 33.4875L3.70004 34.0875C4.00004 34.4875 4.20005 34.7875 4.40005 35.1875L5.00003 36.0875L5.70004 35.1875C5.80004 35.0875 6.00004 34.8874 6.10004 34.7874C8.50004 32.1874 11.1 30.5874 14.1 29.7874C16.8 29.0874 19.7 29.1874 22.6 30.2874C25.1 31.1874 27.7 31.4875 30.3 31.1875C34.9 30.6875 39.5 28.0875 42.9001 25.1875C43.1001 24.9875 43.3 24.8875 43.5 24.6875L43.8 24.3875V24.0875C43.8 23.4875 43.9001 22.7875 43.9001 22.1875L44 19.8875Z" fill="#099250"/>
  <path d="M6.00018 10.6877L5.7002 10.0876L6.00018 10.6877C6.60018 10.3877 7.30021 10.1876 7.90021 9.98764C10.6002 9.28764 13.5002 9.38764 16.4002 10.4876C18.3002 11.1876 20.2002 11.4876 22.3002 11.4876C26.5002 11.4876 30.7002 9.98765 34.6002 7.08765L36.1002 5.88763L36.6002 5.48764L35.7002 4.78763C35.4002 4.48763 35.0002 4.18764 34.6002 3.98764L34.0002 3.58765L33.5002 3.98764C33.3002 4.08764 33.2002 4.28763 33.0002 4.38763C27.7002 8.38763 22.4002 9.48765 17.4002 7.58765C13.8002 6.28765 10.2002 5.98765 6.60019 7.08765C6.30019 7.18765 6.00019 7.28763 5.60019 7.38763L5.40021 7.48764L5.10019 7.78763C5.10019 7.88763 5.00021 7.88764 4.90021 7.98764C4.50021 8.58764 4.00019 9.08765 3.60019 9.68765L1.7002 12.5876L4.8002 10.9876C5.3002 10.9876 5.70018 10.7877 6.00018 10.6877Z" fill="#099250"/>
  <path d="M14.2 3.88748L14.5 3.98749C15.8 4.48749 17.8 4.98749 20.3 4.98749C22.9 4.98749 25.4 4.38748 27.9 3.38748L31 1.88748L28.9 1.1875C28.3 0.9875 27.7 0.7875 27 0.6875H26.7L26.4 0.787476C26.1 0.887476 25.8 1.0875 25.5 1.1875C22.5 2.2875 19.5 2.4875 16.6 1.6875C16.3 1.5875 16 1.48748 15.7 1.38748L15.4 1.28748L15.1 1.38748C14.5 1.58748 13.9 1.78749 13.3 2.08749L11 3.08749L13.4 3.78748C13.6 3.68748 13.9 3.78748 14.2 3.88748Z" fill="#099250"/>
</svg>
